<svg xmlns="http://www.w3.org/2000/svg" viewBox="0 0 128 128" fill="none">
  <defs>
    <linearGradient id="field" x1="15" y1="12" x2="112" y2="118" gradientUnits="userSpaceOnUse">
      <stop stop-color="#152a43"/>
      <stop offset="1" stop-color="#0b1728"/>
    </linearGradient>
    <linearGradient id="shield" x1="64" y1="23" x2="64" y2="105" gradientUnits="userSpaceOnUse">
      <stop stop-color="#f8fbff"/>
      <stop offset="1" stop-color="#c8ddf7"/>
    </linearGradient>
  </defs>
  <rect x="3" y="3" width="122" height="122" rx="36" fill="url(#field)"/>
  <circle cx="64" cy="64" r="49" stroke="#6d8baa" stroke-opacity=".22" stroke-width="1.5"/>
  <circle cx="64" cy="64" r="39" stroke="#6d8baa" stroke-opacity=".28" stroke-width="1"/>
  <path d="M64 22 94 34v25c0 20-12 36-30 47C46 95 34 79 34 59V34l30-12Z" fill="url(#shield)" stroke="#fff" stroke-width="2"/>
  <path d="m64 37 7.5 18.5L90 64l-18.5 8.5L64 91l-7.5-18.5L38 64l18.5-8.5L64 37Z" fill="#2563eb"/>
  <path d="m64 44 4.9 15.1L84 64l-15.1 4.9L64 84l-4.9-15.1L44 64l15.1-4.9L64 44Z" fill="#f4c96b"/>
  <circle cx="64" cy="64" r="5" fill="#152a43"/>
  <path d="M64 12v7M64 109v7M12 64h7M109 64h7" stroke="#f4c96b" stroke-linecap="round" stroke-width="2"/>
</svg>
